grf
version=1
nRows=5
nColumns=73
inDegrees=yes
endheader
time	ground_force_1_vx	ground_force_1_vy	ground_force_1_vz	ground_force_1_px	ground_force_1_py	ground_force_1_pz	ground_moment_1_mx	ground_moment_1_my	ground_moment_1_mz	ground_force_2_vx	ground_force_2_vy	ground_force_2_vz	ground_force_2_px	ground_force_2_py	ground_force_2_pz	ground_moment_2_mx	ground_moment_2_my	ground_moment_2_mz	ground_force_3_vx	ground_force_3_vy	ground_force_3_vz	ground_force_3_px	ground_force_3_py	ground_force_3_pz	ground_moment_3_mx	ground_moment_3_my	ground_moment_3_mz	ground_force_4_vx	ground_force_4_vy	ground_force_4_vz	ground_force_4_px	ground_force_4_py	ground_force_4_pz	ground_moment_4_mx	ground_moment_4_my	ground_moment_4_mz	ground_force_5_vx	ground_force_5_vy	ground_force_5_vz	ground_force_5_px	ground_force_5_py	ground_force_5_pz	ground_moment_5_mx	ground_moment_5_my	ground_moment_5_mz	ground_force_6_vx	ground_force_6_vy	ground_force_6_vz	ground_force_6_px	ground_force_6_py	ground_force_6_pz	ground_moment_6_mx	ground_moment_6_my	ground_moment_6_mz	ground_force_7_vx	ground_force_7_vy	ground_force_7_vz	ground_force_7_px	ground_force_7_py	ground_force_7_pz	ground_moment_7_mx	ground_moment_7_my	ground_moment_7_mz	ground_force_8_vx	ground_force_8_vy	ground_force_8_vz	ground_force_8_px	ground_force_8_py	ground_force_8_pz	ground_moment_8_mx	ground_moment_8_my	ground_moment_8_mz
2.350000	-5.876448	419.279172	10.414029	0.444837	0.000000	0.320477	-0.000000	-0.398734	-0.000000	0.000000	0.000000	0.000000	0.000000	0.000000	0.000000	0.000000	0.000000	0.000000	-6.382086	372.284893	4.924083	0.461008	0.000000	0.323700	0.000000	-1.007478	-0.000000	0.314373	46.317504	5.535113	0.346212	0.000000	0.314745	-0.000000	0.155241	0.000000	-6.535967	370.334145	4.718471	0.460942	0.000000	0.321614	0.000000	-0.966886	0.000000	0.028459	46.121624	5.104764	0.352703	0.000000	0.315572	0.000000	0.079296	0.000000	-6.082064	413.546448	9.208337	0.447245	0.000000	0.321045	-0.000000	-0.425478	0.000000	0.000000	0.000000	0.000000	0.000000	0.000000	0.000000	0.000000	0.000000	0.000000
2.351000	-5.644613	419.675933	10.555382	0.443974	0.000000	0.320550	-0.000000	-0.389501	-0.000000	0.000000	0.000000	0.000000	0.000000	0.000000	0.000000	0.000000	0.000000	0.000000	-6.345678	372.293373	4.960036	0.460259	0.000000	0.323750	0.000000	-1.016157	-0.000000	0.512608	46.766384	5.638793	0.345186	0.000000	0.315249	0.000000	0.160386	0.000000	-6.498439	370.079015	4.732156	0.460246	0.000000	0.321654	0.000000	-0.970945	0.000000	0.234181	46.712637	5.237956	0.352328	0.000000	0.316159	0.000000	0.086551	0.000000	-5.850791	413.865469	9.351897	0.446392	0.000000	0.321108	-0.000000	-0.409058	0.000000	0.000000	0.000000	0.000000	0.000000	0.000000	0.000000	0.000000	0.000000	0.000000
2.352000	-5.410746	420.090199	10.699324	0.443108	0.000000	0.320623	-0.000000	-0.382259	-0.000000	0.000000	0.000000	0.000000	0.000000	0.000000	0.000000	0.000000	0.000000	0.000000	-6.305844	372.396740	5.005684	0.459485	0.000000	0.323802	0.000000	-1.025783	-0.000000	0.711721	47.136948	5.735009	0.344138	0.000000	0.315735	0.000000	0.165414	0.000000	-6.456818	369.926439	4.756328	0.459524	0.000000	0.321694	0.000000	-0.976408	0.000000	0.442071	47.222339	5.362903	0.351717	0.000000	0.316744	0.000000	0.093860	0.000000	-5.611961	414.206418	9.498019	0.445532	0.000000	0.321169	-0.000000	-0.394495	0.000000	0.000000	0.000000	0.000000	0.000000	0.000000	0.000000	0.000000	0.000000	0.000000
2.353000	-5.176839	420.518069	10.846419	0.442239	0.000000	0.320695	-0.000000	-0.377013	-0.000000	0.000000	0.000000	0.000000	0.000000	0.000000	0.000000	0.000000	0.000000	0.000000	-6.262567	372.588472	5.060905	0.458683	0.000000	0.323858	0.000000	-1.036411	-0.000000	0.909257	47.431104	5.824533	0.343094	0.000000	0.316194	0.000000	0.170412	0.000000	-6.411442	369.873036	4.790111	0.458774	0.000000	0.321734	0.000000	-0.983062	0.000000	0.649432	47.652479	5.480039	0.350909	0.000000	0.317317	0.000000	0.101024	0.000000	-5.368669	414.567785	9.646254	0.444667	0.000000	0.321228	-0.000000	-0.381788	0.000000	0.000000	0.000000	0.000000	0.000000	0.000000	0.000000	0.000000	0.000000	0.000000
2.354000	-4.944950	420.956111	10.996376	0.441366	0.000000	0.320767	-0.000000	-0.373765	-0.000000	0.000000	0.000000	0.000000	0.000000	0.000000	0.000000	0.000000	0.000000	0.000000	-6.215752	372.861675	5.125031	0.457852	0.000000	0.323917	0.000000	-1.048060	-0.000000	1.102670	47.651743	5.907826	0.342071	0.000000	0.316619	0.000000	0.175431	0.000000	-6.362782	369.914293	4.833187	0.457997	0.000000	0.321776	0.000000	-0.990784	0.000000	0.853930	48.005148	5.590043	0.349947	0.000000	0.317866	0.000000	0.107974	0.000000	-5.123783	414.947240	9.796950	0.443796	0.000000	0.321286	-0.000000	-0.370918	0.000000	0.000000	0.000000	0.000000	0.000000	0.000000	0.000000	0.000000	0.000000	0.000000
